# xmcd
#
# Track frame offsets: 
#        300
#        8148
#        30971
#        50031
#        72953
#        90715
#        104870
#        119097
#        138053
#        154739
#        177199
#        194113
#        215815
#
# Disc length: 3135 seconds
#
# Revision: 4
# Processed by: cddbd v1.5.2PL0 Copyright (c) Steve Scherf et al.
# Submitted via: ExactAudioCopy v1.0b1
#
DISCID=c30c3b0d
DTITLE=Bernard Allison - Storms Of Life
DYEAR=2002
DGENRE=Blues
TTITLE0=Slip Slidin'
TTITLE1=Storms Of Life
TTITLE2=Down South
TTITLE3=Just Do me Anyway You Want
TTITLE4=I Think I Love You Too Much
TTITLE5=Mean Town Blues
TTITLE6=Speed Slide
TTITLE7=I Wanna Drive You Home
TTITLE8=Snake Bit Again
TTITLE9=Reaching Out
TTITLE10=Fistful Of Dirt
TTITLE11=Help Me Through The Day
TTITLE12=Goodbye Little Girl
EXTD=YEAR: 2002
EXTT0=
EXTT1=
EXTT2=
EXTT3=
EXTT4=
EXTT5=
EXTT6=
EXTT7=
EXTT8=
EXTT9=
EXTT10=
EXTT11=
EXTT12=
PLAYORDER=
